<mxfile host="app.diagrams.net" modified="2024-02-23T08:03:33.357Z" agent="Mozilla/5.0 (Windows NT 10.0; Win64; x64) AppleWebKit/537.36 (KHTML, like Gecko) Chrome/121.0.0.0 Safari/537.36 Edg/121.0.0.0" etag="bcChMWEl1wiB82SBu5it" version="22.1.21" type="github">
  <diagram name="第 1 页" id="CtyJo2P3b-6Lu_mJbqTz">
    <mxGraphModel dx="978" dy="526" grid="1" gridSize="10" guides="1" tooltips="1" connect="1" arrows="1" fold="1" page="1" pageScale="1" pageWidth="827" pageHeight="1169" math="0" shadow="0">
      <root>
        <mxCell id="0" />
        <mxCell id="1" parent="0" />
        <mxCell id="cEEFSIKz6-tTlmyAI1KE-26" style="edgeStyle=orthogonalEdgeStyle;rounded=0;orthogonalLoop=1;jettySize=auto;html=1;exitX=0.5;exitY=1;exitDx=0;exitDy=0;entryX=0.5;entryY=0;entryDx=0;entryDy=0;" parent="1" source="cEEFSIKz6-tTlmyAI1KE-1" target="cEEFSIKz6-tTlmyAI1KE-3" edge="1">
          <mxGeometry relative="1" as="geometry">
            <Array as="points">
              <mxPoint x="405" y="110" />
              <mxPoint x="170" y="110" />
            </Array>
          </mxGeometry>
        </mxCell>
        <mxCell id="cEEFSIKz6-tTlmyAI1KE-28" style="edgeStyle=orthogonalEdgeStyle;rounded=0;orthogonalLoop=1;jettySize=auto;html=1;exitX=0.5;exitY=1;exitDx=0;exitDy=0;" parent="1" source="cEEFSIKz6-tTlmyAI1KE-1" edge="1">
          <mxGeometry relative="1" as="geometry">
            <mxPoint x="405" y="130" as="targetPoint" />
          </mxGeometry>
        </mxCell>
        <mxCell id="lJTlcVSxqZylUzzqMIql-8" style="edgeStyle=orthogonalEdgeStyle;rounded=0;orthogonalLoop=1;jettySize=auto;html=1;exitX=0.5;exitY=1;exitDx=0;exitDy=0;" edge="1" parent="1" source="cEEFSIKz6-tTlmyAI1KE-1" target="cEEFSIKz6-tTlmyAI1KE-11">
          <mxGeometry relative="1" as="geometry" />
        </mxCell>
        <mxCell id="cEEFSIKz6-tTlmyAI1KE-1" value="&lt;font style=&quot;font-size: 24px;&quot; face=&quot;宋体&quot;&gt;流速对花鲈的影响研究&lt;/font&gt;" style="rounded=0;whiteSpace=wrap;html=1;" parent="1" vertex="1">
          <mxGeometry x="245" y="40" width="320" height="50" as="geometry" />
        </mxCell>
        <mxCell id="cEEFSIKz6-tTlmyAI1KE-29" style="edgeStyle=orthogonalEdgeStyle;rounded=0;orthogonalLoop=1;jettySize=auto;html=1;exitX=0.5;exitY=1;exitDx=0;exitDy=0;entryX=0.5;entryY=0;entryDx=0;entryDy=0;" parent="1" source="cEEFSIKz6-tTlmyAI1KE-3" target="cEEFSIKz6-tTlmyAI1KE-23" edge="1">
          <mxGeometry relative="1" as="geometry" />
        </mxCell>
        <mxCell id="cEEFSIKz6-tTlmyAI1KE-3" value="" style="rounded=0;whiteSpace=wrap;html=1;fillColor=none;dashed=1;dashPattern=12 12;" parent="1" vertex="1">
          <mxGeometry x="75" y="150" width="190" height="110" as="geometry" />
        </mxCell>
        <mxCell id="cEEFSIKz6-tTlmyAI1KE-4" value="&lt;font face=&quot;宋体&quot;&gt;&lt;span style=&quot;font-size: 18px;&quot;&gt;平均速度&lt;/span&gt;&lt;/font&gt;" style="rounded=0;whiteSpace=wrap;html=1;" parent="1" vertex="1">
          <mxGeometry x="85" y="160" width="80" height="30" as="geometry" />
        </mxCell>
        <mxCell id="cEEFSIKz6-tTlmyAI1KE-5" value="&lt;font face=&quot;宋体&quot; style=&quot;font-size: 18px;&quot;&gt;生长指标&lt;/font&gt;" style="rounded=0;whiteSpace=wrap;html=1;" parent="1" vertex="1">
          <mxGeometry x="300" y="160" width="100" height="30" as="geometry" />
        </mxCell>
        <mxCell id="cEEFSIKz6-tTlmyAI1KE-30" value="" style="edgeStyle=orthogonalEdgeStyle;rounded=0;orthogonalLoop=1;jettySize=auto;html=1;" parent="1" source="cEEFSIKz6-tTlmyAI1KE-11" target="cEEFSIKz6-tTlmyAI1KE-24" edge="1">
          <mxGeometry relative="1" as="geometry">
            <Array as="points">
              <mxPoint x="680" y="310" />
              <mxPoint x="680" y="310" />
            </Array>
          </mxGeometry>
        </mxCell>
        <mxCell id="cEEFSIKz6-tTlmyAI1KE-11" value="" style="rounded=0;whiteSpace=wrap;html=1;fillColor=none;dashed=1;dashPattern=12 12;" parent="1" vertex="1">
          <mxGeometry x="550" y="130" width="285" height="160" as="geometry" />
        </mxCell>
        <mxCell id="cEEFSIKz6-tTlmyAI1KE-31" value="" style="edgeStyle=orthogonalEdgeStyle;rounded=0;orthogonalLoop=1;jettySize=auto;html=1;exitX=0.48;exitY=1.013;exitDx=0;exitDy=0;exitPerimeter=0;" parent="1" source="lJTlcVSxqZylUzzqMIql-7" target="cEEFSIKz6-tTlmyAI1KE-25" edge="1">
          <mxGeometry relative="1" as="geometry">
            <mxPoint x="405" y="310" as="sourcePoint" />
          </mxGeometry>
        </mxCell>
        <mxCell id="cEEFSIKz6-tTlmyAI1KE-13" value="&lt;font face=&quot;宋体&quot; style=&quot;font-size: 18px;&quot;&gt;肌肉质构性&lt;/font&gt;" style="rounded=0;whiteSpace=wrap;html=1;" parent="1" vertex="1">
          <mxGeometry x="565" y="150" width="100" height="40" as="geometry" />
        </mxCell>
        <mxCell id="cEEFSIKz6-tTlmyAI1KE-14" value="&lt;font face=&quot;宋体&quot; style=&quot;font-size: 18px;&quot;&gt;肌肉基本组成成分&lt;/font&gt;" style="rounded=0;whiteSpace=wrap;html=1;" parent="1" vertex="1">
          <mxGeometry x="675" y="150" width="155" height="40" as="geometry" />
        </mxCell>
        <mxCell id="cEEFSIKz6-tTlmyAI1KE-15" value="&lt;font face=&quot;宋体&quot; style=&quot;font-size: 18px;&quot;&gt;氨基酸&lt;br&gt;指标&lt;/font&gt;" style="rounded=0;whiteSpace=wrap;html=1;" parent="1" vertex="1">
          <mxGeometry x="570" y="210" width="90" height="50" as="geometry" />
        </mxCell>
        <mxCell id="cEEFSIKz6-tTlmyAI1KE-16" value="&lt;font face=&quot;宋体&quot; style=&quot;font-size: 18px;&quot;&gt;脂肪酸&lt;br&gt;指标&lt;/font&gt;" style="rounded=0;whiteSpace=wrap;html=1;" parent="1" vertex="1">
          <mxGeometry x="750" y="210" width="76" height="50" as="geometry" />
        </mxCell>
        <mxCell id="cEEFSIKz6-tTlmyAI1KE-17" value="&lt;font face=&quot;宋体&quot; style=&quot;font-size: 18px;&quot;&gt;消化酶活性&lt;/font&gt;" style="rounded=0;whiteSpace=wrap;html=1;" parent="1" vertex="1">
          <mxGeometry x="300" y="200" width="100" height="30" as="geometry" />
        </mxCell>
        <mxCell id="cEEFSIKz6-tTlmyAI1KE-18" value="&lt;font face=&quot;宋体&quot; style=&quot;font-size: 18px;&quot;&gt;抗氧化能力&lt;/font&gt;" style="rounded=0;whiteSpace=wrap;html=1;" parent="1" vertex="1">
          <mxGeometry x="414" y="200" width="116" height="30" as="geometry" />
        </mxCell>
        <mxCell id="cEEFSIKz6-tTlmyAI1KE-19" value="&lt;font face=&quot;宋体&quot; style=&quot;font-size: 18px;&quot;&gt;免疫能力&lt;/font&gt;" style="rounded=0;whiteSpace=wrap;html=1;" parent="1" vertex="1">
          <mxGeometry x="300" y="240" width="100" height="30" as="geometry" />
        </mxCell>
        <mxCell id="cEEFSIKz6-tTlmyAI1KE-21" value="&lt;font face=&quot;宋体&quot; style=&quot;font-size: 18px;&quot;&gt;血清生化指标&lt;/font&gt;" style="rounded=0;whiteSpace=wrap;html=1;" parent="1" vertex="1">
          <mxGeometry x="414" y="240" width="116" height="30" as="geometry" />
        </mxCell>
        <mxCell id="cEEFSIKz6-tTlmyAI1KE-34" style="edgeStyle=orthogonalEdgeStyle;rounded=0;orthogonalLoop=1;jettySize=auto;html=1;" parent="1" source="cEEFSIKz6-tTlmyAI1KE-23" target="cEEFSIKz6-tTlmyAI1KE-33" edge="1">
          <mxGeometry relative="1" as="geometry" />
        </mxCell>
        <mxCell id="cEEFSIKz6-tTlmyAI1KE-23" value="&lt;font style=&quot;font-size: 18px;&quot; face=&quot;宋体&quot;&gt;流速对花鲈行为的影响&lt;/font&gt;" style="rounded=0;whiteSpace=wrap;html=1;" parent="1" vertex="1">
          <mxGeometry x="85" y="350" width="170" height="70" as="geometry" />
        </mxCell>
        <mxCell id="lJTlcVSxqZylUzzqMIql-9" style="edgeStyle=orthogonalEdgeStyle;rounded=0;orthogonalLoop=1;jettySize=auto;html=1;entryX=0.5;entryY=0;entryDx=0;entryDy=0;" edge="1" parent="1" source="cEEFSIKz6-tTlmyAI1KE-24" target="cEEFSIKz6-tTlmyAI1KE-33">
          <mxGeometry relative="1" as="geometry">
            <Array as="points">
              <mxPoint x="680" y="450" />
              <mxPoint x="405" y="450" />
            </Array>
          </mxGeometry>
        </mxCell>
        <mxCell id="cEEFSIKz6-tTlmyAI1KE-24" value="&lt;font style=&quot;font-size: 18px;&quot; face=&quot;宋体&quot;&gt;流速对花鲈肌肉品质的影响&lt;/font&gt;" style="rounded=0;whiteSpace=wrap;html=1;" parent="1" vertex="1">
          <mxGeometry x="595" y="350" width="170" height="70" as="geometry" />
        </mxCell>
        <mxCell id="cEEFSIKz6-tTlmyAI1KE-38" style="edgeStyle=orthogonalEdgeStyle;rounded=0;orthogonalLoop=1;jettySize=auto;html=1;entryX=0.5;entryY=0;entryDx=0;entryDy=0;" parent="1" source="cEEFSIKz6-tTlmyAI1KE-25" target="cEEFSIKz6-tTlmyAI1KE-33" edge="1">
          <mxGeometry relative="1" as="geometry" />
        </mxCell>
        <mxCell id="cEEFSIKz6-tTlmyAI1KE-25" value="&lt;font style=&quot;font-size: 18px;&quot; face=&quot;宋体&quot;&gt;流速对花鲈生理生长的影响&lt;/font&gt;" style="rounded=0;whiteSpace=wrap;html=1;" parent="1" vertex="1">
          <mxGeometry x="320" y="350" width="170" height="70" as="geometry" />
        </mxCell>
        <mxCell id="cEEFSIKz6-tTlmyAI1KE-33" value="&lt;font style=&quot;font-size: 24px;&quot; face=&quot;宋体&quot;&gt;确定适宜生长的流速范围&lt;/font&gt;" style="rounded=0;whiteSpace=wrap;html=1;" parent="1" vertex="1">
          <mxGeometry x="245" y="480" width="320" height="50" as="geometry" />
        </mxCell>
        <mxCell id="5IbB4AMQtQIc0jSTHKKz-3" value="&lt;font face=&quot;宋体&quot; style=&quot;font-size: 18px;&quot;&gt;营养品质评价&lt;/font&gt;" style="rounded=0;whiteSpace=wrap;html=1;" parent="1" vertex="1">
          <mxGeometry x="665" y="210" width="75" height="50" as="geometry" />
        </mxCell>
        <mxCell id="lJTlcVSxqZylUzzqMIql-4" value="&lt;font face=&quot;宋体&quot; style=&quot;font-size: 18px;&quot;&gt;生长激素&lt;/font&gt;" style="rounded=0;whiteSpace=wrap;html=1;" vertex="1" parent="1">
          <mxGeometry x="414" y="160" width="116" height="30" as="geometry" />
        </mxCell>
        <mxCell id="lJTlcVSxqZylUzzqMIql-5" value="&lt;font face=&quot;宋体&quot;&gt;&lt;span style=&quot;font-size: 18px;&quot;&gt;摆尾频率&lt;/span&gt;&lt;/font&gt;" style="rounded=0;whiteSpace=wrap;html=1;" vertex="1" parent="1">
          <mxGeometry x="175" y="160" width="80" height="30" as="geometry" />
        </mxCell>
        <mxCell id="lJTlcVSxqZylUzzqMIql-6" value="&lt;font face=&quot;宋体&quot;&gt;&lt;span style=&quot;font-size: 18px;&quot;&gt;流速偏好区域&lt;/span&gt;&lt;/font&gt;" style="rounded=0;whiteSpace=wrap;html=1;" vertex="1" parent="1">
          <mxGeometry x="100" y="210" width="140" height="30" as="geometry" />
        </mxCell>
        <mxCell id="lJTlcVSxqZylUzzqMIql-7" value="" style="rounded=0;whiteSpace=wrap;html=1;fillColor=none;dashed=1;dashPattern=12 12;" vertex="1" parent="1">
          <mxGeometry x="280" y="130" width="260" height="160" as="geometry" />
        </mxCell>
      </root>
    </mxGraphModel>
  </diagram>
</mxfile>
